# xmcd
#
# Track frame offsets:
#	150
#	16483
#	32157
#	50452
#	66568
#	82304
#	90516
#	107730
#	122181
#	140317
#
# Disc length: 2140 seconds
#
# Revision: 1
# Processed by: cddbd v1.5.1PL0 Copyright (c) Steve Scherf et al.
# Submitted via: CDex 1.50Beta5
#
DISCID=8c085a0a
DTITLE=Various Artist - an EXtra
DYEAR=1900
DGENRE=CHIBA ALL★STARS
TTITLE0=Mr.OMERI/HABITAT[REMIX]
TTITLE1=wu xing qiu/LION HEART
TTITLE2=K.G.E/KG SPIKE 2001
TTITLE3=REAL IMPACT/R.I SESSION
TTITLE4=SESAME/PRANTER
TTITLE5=ZEN/rare groove
TTITLE6=麻起feat...Mr.OMERI/Jumpin
TTITLE7=MIKRIS/NEXT
TTITLE8=SYNTAX ERA/UNDER WORLD
TTITLE9=PSYCHO STIMULUS HARD CORE/PSYCHO STIMULUS HARD CORE
EXTD=
EXTT0=
EXTT1=
EXTT2=
EXTT3=
EXTT4=
EXTT5=
EXTT6=
EXTT7=
EXTT8=
EXTT9=
PLAYORDER=
